<svg width="61" height="60" viewBox="0 0 61 60" fill="none" xmlns="http://www.w3.org/2000/svg">
<g clip-path="url(#clip0_447_1779)">
<path d="M30.5 0C13.934 0 0.5 13.434 0.5 30C0.5 46.566 13.934 60 30.5 60C47.066 60 60.5 46.566 60.5 30C60.5 13.434 47.066 0 30.5 0ZM44.1977 23.3908C44.2109 23.6861 44.2173 23.9827 44.2173 24.2807C44.2173 33.3797 37.2914 43.8721 24.6255 43.8725H24.626H24.6255C20.7368 43.8725 17.1182 42.7327 14.0709 40.7794C14.6096 40.843 15.1581 40.8746 15.7133 40.8746C18.9396 40.8746 21.9087 39.7742 24.2657 37.9271C21.2513 37.8712 18.7098 35.8804 17.8328 33.1444C18.2525 33.2249 18.6842 33.2689 19.1269 33.2689C19.7554 33.2689 20.3642 33.1842 20.9428 33.0263C17.792 32.3955 15.4185 29.6109 15.4185 26.2766C15.4185 26.2454 15.4185 26.2175 15.4194 26.1887C16.3473 26.7046 17.4084 27.0149 18.5382 27.0497C16.6893 25.816 15.4739 23.7071 15.4739 21.3181C15.4739 20.0565 15.8149 18.8745 16.4064 17.8569C19.8021 22.0235 24.8768 24.7636 30.5998 25.0516C30.4817 24.5471 30.4208 24.0216 30.4208 23.4814C30.4208 19.6802 33.5048 16.5962 37.3074 16.5962C39.2881 16.5962 41.0771 17.4335 42.3336 18.772C43.9024 18.4625 45.3755 17.8894 46.7062 17.1007C46.1912 18.7079 45.0999 20.0565 43.6781 20.9093C45.0711 20.7426 46.3986 20.3732 47.6323 19.8248C46.7108 21.2059 45.5421 22.419 44.1977 23.3908Z" fill="white"/>
</g>
<defs>
<clipPath id="clip0_447_1779">
<rect width="60" height="60" fill="white" transform="translate(0.5)"/>
</clipPath>
</defs>
</svg>
