<svg width="61" height="60" viewBox="0 0 61 60" fill="none" xmlns="http://www.w3.org/2000/svg">
<g clip-path="url(#clip0_447_1786)">
<path d="M30.5 0C13.934 0 0.5 13.434 0.5 30C0.5 46.566 13.934 60 30.5 60C47.066 60 60.5 46.566 60.5 30C60.5 13.434 47.066 0 30.5 0ZM31.1358 47.4669C31.1354 47.4669 31.1363 47.4669 31.1358 47.4669H31.1285C28.1233 47.4655 25.1703 46.712 22.5477 45.282L13.0294 47.7782L15.5769 38.4764C14.0054 35.7545 13.1787 32.6665 13.1801 29.5029C13.1842 19.606 21.239 11.5544 31.1358 11.5544C35.9387 11.5562 40.4472 13.4258 43.8369 16.8182C47.2271 20.2112 49.093 24.7211 49.0912 29.5171C49.087 39.4144 41.0313 47.4669 31.1358 47.4669Z" fill="white"/>
<path d="M31.1453 14.5879C22.9133 14.5879 16.2185 21.2799 16.2148 29.5059C16.2139 32.3249 17.0031 35.0701 18.4968 37.4454L18.8516 38.0098L17.3437 43.5153L22.992 42.034L23.5372 42.3572C25.8283 43.7168 28.455 44.4359 31.1329 44.4368H31.1389C39.3644 44.4368 46.0592 37.7443 46.0629 29.5179C46.0642 25.5312 44.5133 21.783 41.6958 18.9632C38.8783 16.1434 35.131 14.5893 31.1453 14.5879ZM39.9233 35.9201C39.5493 36.9675 37.7572 37.9238 36.8952 38.0529C36.1221 38.1682 35.1443 38.2163 34.0695 37.8752C33.4176 37.6683 32.5822 37.3923 31.5115 36.9304C27.0112 34.9877 24.0719 30.4576 23.8476 30.1583C23.6233 29.8589 22.0156 27.7262 22.0156 25.5184C22.0156 23.311 23.1747 22.2257 23.5858 21.7771C23.9973 21.328 24.4834 21.2159 24.7824 21.2159C25.0813 21.2159 25.3806 21.2186 25.642 21.2314C25.9176 21.2451 26.2875 21.1266 26.6514 22.0014C27.0254 22.8995 27.9226 25.1068 28.0348 25.3311C28.1469 25.5559 28.2215 25.8177 28.0723 26.1171C27.9226 26.4165 27.4255 27.0624 26.9508 27.6511C26.7516 27.8978 26.4921 28.1176 26.7539 28.5666C27.0153 29.0152 27.9162 30.4842 29.2497 31.6735C30.9635 33.2015 32.4092 33.6748 32.8578 33.8996C33.3059 34.1239 33.5678 34.0863 33.8296 33.7874C34.091 33.488 34.9511 32.4778 35.25 32.0287C35.549 31.5796 35.8483 31.6547 36.2594 31.8044C36.6709 31.9536 38.8764 33.039 39.325 33.2633C39.7737 33.488 40.0726 33.6002 40.1847 33.7874C40.2973 33.9746 40.2973 34.8723 39.9233 35.9201Z" fill="white"/>
</g>
<defs>
<clipPath id="clip0_447_1786">
<rect width="60" height="60" fill="white" transform="translate(0.5)"/>
</clipPath>
</defs>
</svg>
