<svg width="61" height="60" viewBox="0 0 61 60" fill="none" xmlns="http://www.w3.org/2000/svg">
<g clip-path="url(#clip0_447_1781)">
<path d="M36.8708 17.0527H24.1375C20.5108 17.0527 17.5508 19.9994 17.5508 23.6394V36.3727C17.5508 39.9994 20.4974 42.9594 24.1375 42.9594H36.8708C40.4975 42.9594 43.4575 40.0127 43.4575 36.3727V23.6394C43.4441 19.9994 40.4975 17.0527 36.8708 17.0527ZM30.4975 38.5194C25.8041 38.5194 21.9775 34.6927 21.9775 29.9994C21.9775 25.3061 25.8041 21.4794 30.4975 21.4794C35.1908 21.4794 39.0175 25.3061 39.0175 29.9994C39.0175 34.6927 35.1908 38.5194 30.4975 38.5194ZM39.4441 22.4261C38.6441 22.4261 38.0041 21.7861 38.0041 20.9861C38.0041 20.1861 38.6441 19.5461 39.4441 19.5461C40.2441 19.5461 40.8841 20.1861 40.8841 20.9861C40.8841 21.7861 40.2441 22.4261 39.4441 22.4261Z" fill="white"/>
<path d="M35.6822 30.0641C35.7165 27.207 33.4281 24.863 30.5709 24.8287C27.7138 24.7944 25.3698 27.0828 25.3355 29.9399C25.3012 32.7971 27.5896 35.1411 30.4468 35.1754C33.3039 35.2096 35.6479 32.9213 35.6822 30.0641Z" fill="white"/>
<path d="M30.5 0C13.9267 0 0.5 13.4267 0.5 30C0.5 46.5733 13.9267 60 30.5 60C47.0733 60 60.5 46.5733 60.5 30C60.5 13.4267 47.0733 0 30.5 0ZM47.1667 36.3733C47.1667 42.0533 42.5533 46.6667 36.8733 46.6667H24.14C18.46 46.6667 13.8467 42.0533 13.8467 36.3733V23.64C13.8467 17.96 18.46 13.3467 24.14 13.3467H36.8733C42.5533 13.3467 47.1667 17.96 47.1667 23.64V36.3733Z" fill="white"/>
</g>
<defs>
<clipPath id="clip0_447_1781">
<rect width="60" height="60" fill="white" transform="translate(0.5)"/>
</clipPath>
</defs>
</svg>
