<svg width="61" height="60" viewBox="0 0 61 60" fill="none" xmlns="http://www.w3.org/2000/svg">
<g clip-path="url(#clip0_447_1775)">
<path d="M30.5 0C24.5666 0 18.7664 1.75947 13.8329 5.05591C8.89944 8.35235 5.05426 13.0377 2.78363 18.5195C0.512998 24.0013 -0.0811022 30.0333 1.07646 35.8527C2.23401 41.6721 5.09124 47.0176 9.28682 51.2132C13.4824 55.4088 18.8279 58.266 24.6473 59.4236C30.4668 60.5811 36.4988 59.987 41.9806 57.7164C47.4624 55.4458 52.1477 51.6006 55.4442 46.6671C58.7406 41.7336 60.5001 35.9334 60.5001 30C60.5001 22.0435 57.3394 14.4129 51.7133 8.7868C46.0872 3.16071 38.4566 0 30.5 0V0ZM39.0343 19.5237C39.0343 20.0882 38.7974 20.3132 38.2448 20.3132C37.1829 20.3132 36.1211 20.3132 35.0632 20.3566C34.0053 20.4 33.429 20.8816 33.429 21.9868C33.4053 23.1711 33.429 24.3316 33.429 25.5395H37.9724C38.6198 25.5395 38.8408 25.7605 38.8408 26.4118C38.8408 27.9908 38.8408 29.5776 38.8408 31.1724C38.8408 31.8158 38.6356 32.0171 37.9843 32.0211H33.3895V44.8658C33.3895 45.5526 33.1764 45.7697 32.4974 45.7697H27.5553C26.9593 45.7697 26.7264 45.5368 26.7264 44.9408V32.0408H22.8027C22.1869 32.0408 21.9658 31.8158 21.9658 31.1961C21.9658 29.5987 21.9658 28.0026 21.9658 26.4079C21.9658 25.7921 22.1987 25.5592 22.8066 25.5592H26.7264V22.1053C26.6798 20.5538 27.0521 19.0184 27.804 17.6605C28.5856 16.2896 29.8381 15.2489 31.329 14.7316C32.2965 14.3795 33.3192 14.2031 34.3487 14.2105H38.229C38.7856 14.2105 39.0185 14.4553 39.0185 15C39.0382 16.5197 39.0382 18.0237 39.0343 19.5237Z" fill="white"/>
</g>
<defs>
<clipPath id="clip0_447_1775">
<rect width="60" height="60" fill="white" transform="translate(0.5)"/>
</clipPath>
</defs>
</svg>
