<svg width="422" height="44" viewBox="0 0 422 44" fill="none" xmlns="http://www.w3.org/2000/svg">
<path d="M29.0657 29H17.0813V27.7812C17.3417 27.7604 17.7219 27.7292 18.2219 27.6875C18.7219 27.6458 19.0657 27.5833 19.2532 27.5C19.6386 27.3438 19.9042 27.1406 20.05 26.8906C20.1959 26.6302 20.2688 26.3021 20.2688 25.9062V18.2656H10.8V25.7344C10.8 26.0885 10.873 26.4062 11.0188 26.6875C11.175 26.9688 11.4355 27.1875 11.8 27.3438C11.998 27.4271 12.3365 27.5156 12.8157 27.6094C13.2948 27.7031 13.6855 27.7604 13.9875 27.7812V29H2.00317V27.7812C2.26359 27.7708 2.6438 27.7396 3.1438 27.6875C3.65422 27.625 4.02401 27.5521 4.25317 27.4688C4.62817 27.3333 4.88859 27.1302 5.03442 26.8594C5.18026 26.5781 5.25317 26.25 5.25317 25.875V10.1875C5.25317 9.82292 5.18547 9.51562 5.05005 9.26562C4.92505 9.01562 4.65942 8.79688 4.25317 8.60938C3.95109 8.47396 3.55526 8.35417 3.06567 8.25C2.57609 8.13542 2.22192 8.06771 2.00317 8.04688V6.82812H13.9875V8.04688C13.6646 8.06771 13.2792 8.11979 12.8313 8.20312C12.3834 8.28646 12.0396 8.36458 11.8 8.4375C11.3938 8.57292 11.123 8.79167 10.9875 9.09375C10.8625 9.38542 10.8 9.69792 10.8 10.0312V16.6562H20.2688V10.1875C20.2688 9.82292 20.2011 9.51562 20.0657 9.26562C19.9303 9.01562 19.6594 8.79688 19.2532 8.60938C18.9823 8.48438 18.6178 8.36979 18.1594 8.26562C17.7115 8.15104 17.3521 8.07812 17.0813 8.04688V6.82812H29.0657V8.04688C28.7323 8.06771 28.3573 8.11458 27.9407 8.1875C27.524 8.25 27.149 8.33333 26.8157 8.4375C26.4198 8.57292 26.1542 8.78646 26.0188 9.07812C25.8834 9.36979 25.8157 9.6875 25.8157 10.0312V25.7344C25.8157 26.1094 25.8834 26.4271 26.0188 26.6875C26.1542 26.9479 26.4198 27.1667 26.8157 27.3438C27.0657 27.4479 27.425 27.5417 27.8938 27.625C28.373 27.7083 28.7636 27.7604 29.0657 27.7812V29Z" fill="white"/>
<path d="M69.5657 29H57.4875V27.7812C58.05 27.7396 58.7115 27.6406 59.4719 27.4844C60.2323 27.3177 60.6125 27.1146 60.6125 26.875C60.6125 26.7917 60.6021 26.6979 60.5813 26.5938C60.5709 26.4896 60.5292 26.349 60.4563 26.1719L58.5657 21.5781H50.9094C50.7323 22.0052 50.5344 22.5052 50.3157 23.0781C50.1073 23.651 49.925 24.1615 49.7688 24.6094C49.5709 25.1927 49.4511 25.6146 49.4094 25.875C49.3782 26.1354 49.3625 26.3177 49.3625 26.4219C49.3625 26.7552 49.6125 27.0417 50.1125 27.2812C50.623 27.5104 51.4667 27.6771 52.6438 27.7812V29H43.55V27.7812C43.8938 27.7604 44.2792 27.7083 44.7063 27.625C45.1438 27.5312 45.4875 27.4062 45.7375 27.25C46.1646 27 46.524 26.6927 46.8157 26.3281C47.1178 25.9635 47.3678 25.5312 47.5657 25.0312C48.774 22.1042 49.9823 19.1719 51.1907 16.2344C52.4094 13.2969 53.7532 10.0573 55.2219 6.51562H58.3469C60.3886 11.5365 61.9875 15.5052 63.1438 18.4219C64.3 21.3385 65.2844 23.7552 66.0969 25.6719C66.2323 25.9844 66.4042 26.2708 66.6125 26.5312C66.8209 26.7812 67.1178 27.0208 67.5032 27.25C67.7948 27.4167 68.1334 27.5417 68.5188 27.625C68.9042 27.7083 69.2532 27.7604 69.5657 27.7812V29ZM57.925 20.0312L54.7063 12L51.5344 20.0312H57.925Z" fill="white"/>
<path d="M102.534 12.375C102.534 13.625 102.274 14.7031 101.753 15.6094C101.243 16.5052 100.534 17.2344 99.6282 17.7969C98.6907 18.3802 97.6178 18.8021 96.4094 19.0625C95.2115 19.3229 93.8625 19.4531 92.3625 19.4531H90.55V25.6875C90.55 26.0625 90.6178 26.3906 90.7532 26.6719C90.899 26.9427 91.1698 27.1615 91.5657 27.3281C91.774 27.4115 92.1125 27.5 92.5813 27.5938C93.05 27.6875 93.4459 27.75 93.7688 27.7812V29H81.7532V27.7812C82.0553 27.75 82.4563 27.7083 82.9563 27.6562C83.4563 27.5938 83.8053 27.5208 84.0032 27.4375C84.4094 27.2708 84.675 27.0677 84.8 26.8281C84.9355 26.5885 85.0032 26.2552 85.0032 25.8281V10.1875C85.0032 9.82292 84.9407 9.51042 84.8157 9.25C84.6907 8.97917 84.4198 8.75521 84.0032 8.57812C83.7115 8.45312 83.3209 8.34375 82.8313 8.25C82.3521 8.14583 81.9928 8.07812 81.7532 8.04688V6.82812H93.9875C96.8521 6.82812 98.9928 7.28646 100.409 8.20312C101.826 9.10938 102.534 10.5 102.534 12.375ZM96.4407 13.1719C96.4407 11.5052 96.1021 10.2708 95.425 9.46875C94.7584 8.65625 93.5657 8.25 91.8469 8.25H90.55V17.9844H91.2063C92.9146 17.9844 94.2115 17.5938 95.0969 16.8125C95.9928 16.0208 96.4407 14.8073 96.4407 13.1719Z" fill="white"/>
<path d="M135.885 12.375C135.885 13.625 135.624 14.7031 135.103 15.6094C134.593 16.5052 133.885 17.2344 132.978 17.7969C132.041 18.3802 130.968 18.8021 129.76 19.0625C128.562 19.3229 127.213 19.4531 125.713 19.4531H123.9V25.6875C123.9 26.0625 123.968 26.3906 124.103 26.6719C124.249 26.9427 124.52 27.1615 124.916 27.3281C125.124 27.4115 125.463 27.5 125.931 27.5938C126.4 27.6875 126.796 27.75 127.119 27.7812V29H115.103V27.7812C115.405 27.75 115.806 27.7083 116.306 27.6562C116.806 27.5938 117.155 27.5208 117.353 27.4375C117.76 27.2708 118.025 27.0677 118.15 26.8281C118.286 26.5885 118.353 26.2552 118.353 25.8281V10.1875C118.353 9.82292 118.291 9.51042 118.166 9.25C118.041 8.97917 117.77 8.75521 117.353 8.57812C117.062 8.45312 116.671 8.34375 116.181 8.25C115.702 8.14583 115.343 8.07812 115.103 8.04688V6.82812H127.338C130.202 6.82812 132.343 7.28646 133.76 8.20312C135.176 9.10938 135.885 10.5 135.885 12.375ZM129.791 13.1719C129.791 11.5052 129.452 10.2708 128.775 9.46875C128.108 8.65625 126.916 8.25 125.197 8.25H123.9V17.9844H124.556C126.265 17.9844 127.562 17.5938 128.447 16.8125C129.343 16.0208 129.791 14.8073 129.791 13.1719Z" fill="white"/>
<path d="M171.859 8.04688C171.484 8.08854 171.141 8.15625 170.828 8.25C170.516 8.34375 170.219 8.47396 169.938 8.64062C169.49 8.89062 169.089 9.21354 168.734 9.60938C168.391 9.99479 168.052 10.4271 167.719 10.9062C167.042 11.8958 166.328 12.974 165.578 14.1406C164.839 15.2969 164.031 16.5729 163.156 17.9688C162.583 18.8542 162.229 19.5365 162.094 20.0156C161.969 20.4844 161.906 21.3021 161.906 22.4688V25.6094C161.906 25.9844 161.974 26.3125 162.109 26.5938C162.255 26.875 162.526 27.1042 162.922 27.2812C163.099 27.3542 163.474 27.4531 164.047 27.5781C164.62 27.6927 165.042 27.7604 165.312 27.7812V29H152.953V27.7812C153.245 27.7604 153.661 27.7188 154.203 27.6562C154.755 27.5938 155.141 27.5208 155.359 27.4375C155.745 27.2708 156.005 27.0521 156.141 26.7812C156.286 26.5 156.359 26.1615 156.359 25.7656V21.8594C156.359 21.5156 156.354 21.2135 156.344 20.9531C156.333 20.6927 156.297 20.474 156.234 20.2969C156.161 20.099 156.036 19.849 155.859 19.5469C155.682 19.2344 155.453 18.8333 155.172 18.3438C154.37 16.9375 153.594 15.6042 152.844 14.3438C152.094 13.0833 151.38 11.901 150.703 10.7969C150.349 10.224 149.99 9.76562 149.625 9.42188C149.271 9.06771 148.906 8.78125 148.531 8.5625C148.25 8.40625 147.906 8.28646 147.5 8.20312C147.104 8.11979 146.745 8.06771 146.422 8.04688V6.82812H159.125V8.04688C157.958 8.07812 157.172 8.16146 156.766 8.29688C156.359 8.42188 156.156 8.59896 156.156 8.82812C156.156 8.94271 156.229 9.17188 156.375 9.51562C156.531 9.85938 156.802 10.3906 157.188 11.1094C157.542 11.7865 158.057 12.7188 158.734 13.9062C159.422 15.0938 160.245 16.4844 161.203 18.0781C163.182 14.9427 164.542 12.7552 165.281 11.5156C166.021 10.2656 166.391 9.5 166.391 9.21875C166.391 8.86458 166.172 8.59375 165.734 8.40625C165.307 8.21875 164.609 8.09896 163.641 8.04688V6.82812H171.859V8.04688Z" fill="white"/>
<path d="M243.316 29H231.331V27.7812C231.592 27.7604 231.972 27.7292 232.472 27.6875C232.972 27.6458 233.316 27.5833 233.503 27.5C233.889 27.3438 234.154 27.1406 234.3 26.8906C234.446 26.6302 234.519 26.3021 234.519 25.9062V18.2656H225.05V25.7344C225.05 26.0885 225.123 26.4062 225.269 26.6875C225.425 26.9688 225.685 27.1875 226.05 27.3438C226.248 27.4271 226.587 27.5156 227.066 27.6094C227.545 27.7031 227.935 27.7604 228.238 27.7812V29H216.253V27.7812C216.514 27.7708 216.894 27.7396 217.394 27.6875C217.904 27.625 218.274 27.5521 218.503 27.4688C218.878 27.3333 219.139 27.1302 219.284 26.8594C219.43 26.5781 219.503 26.25 219.503 25.875V10.1875C219.503 9.82292 219.435 9.51562 219.3 9.26562C219.175 9.01562 218.909 8.79688 218.503 8.60938C218.201 8.47396 217.805 8.35417 217.316 8.25C216.826 8.13542 216.472 8.06771 216.253 8.04688V6.82812H228.238V8.04688C227.915 8.06771 227.529 8.11979 227.081 8.20312C226.633 8.28646 226.29 8.36458 226.05 8.4375C225.644 8.57292 225.373 8.79167 225.238 9.09375C225.113 9.38542 225.05 9.69792 225.05 10.0312V16.6562H234.519V10.1875C234.519 9.82292 234.451 9.51562 234.316 9.26562C234.18 9.01562 233.909 8.79688 233.503 8.60938C233.232 8.48438 232.868 8.36979 232.409 8.26562C231.962 8.15104 231.602 8.07812 231.331 8.04688V6.82812H243.316V8.04688C242.982 8.06771 242.607 8.11458 242.191 8.1875C241.774 8.25 241.399 8.33333 241.066 8.4375C240.67 8.57292 240.404 8.78646 240.269 9.07812C240.133 9.36979 240.066 9.6875 240.066 10.0312V25.7344C240.066 26.1094 240.133 26.4271 240.269 26.6875C240.404 26.9479 240.67 27.1667 241.066 27.3438C241.316 27.4479 241.675 27.5417 242.144 27.625C242.623 27.7083 243.014 27.7604 243.316 27.7812V29Z" fill="white"/>
<path d="M285.284 8.04688C284.982 8.07812 284.545 8.15104 283.972 8.26562C283.409 8.36979 282.935 8.55729 282.55 8.82812C282.154 9.08854 281.873 9.55729 281.706 10.2344C281.55 10.9115 281.472 11.9271 281.472 13.2812V21.5312C281.472 23.9583 280.649 25.9115 279.003 27.3906C277.357 28.8698 275.18 29.6094 272.472 29.6094C269.316 29.6094 266.873 28.8958 265.144 27.4688C263.415 26.0417 262.55 24.0521 262.55 21.5V10.1562C262.55 9.79167 262.477 9.47917 262.331 9.21875C262.196 8.95833 261.93 8.72396 261.534 8.51562C261.264 8.38021 260.93 8.27083 260.534 8.1875C260.139 8.10417 259.816 8.04688 259.566 8.01562V6.82812H271.191V8.01562C270.857 8.03646 270.519 8.07812 270.175 8.14062C269.831 8.19271 269.482 8.27604 269.128 8.39062C268.732 8.51562 268.467 8.72396 268.331 9.01562C268.196 9.30729 268.128 9.63542 268.128 10V21.1875C268.128 23.3854 268.613 24.9844 269.581 25.9844C270.55 26.9844 271.956 27.4844 273.8 27.4844C275.613 27.4844 277.034 26.9323 278.066 25.8281C279.097 24.724 279.613 23.099 279.613 20.9531V13.4375C279.613 12.1042 279.519 11.1094 279.331 10.4531C279.154 9.78646 278.878 9.30729 278.503 9.01562C278.232 8.78646 277.758 8.57812 277.081 8.39062C276.415 8.20312 275.946 8.08854 275.675 8.04688V6.82812H285.284V8.04688Z" fill="white"/>
<path d="M329.372 29H317.356V27.7812C317.71 27.75 318.143 27.6979 318.653 27.625C319.174 27.5521 319.528 27.474 319.716 27.3906C320.101 27.2344 320.377 27.0208 320.544 26.75C320.71 26.4792 320.794 26.1354 320.794 25.7188V9.15625L313.169 28.6406H311.2C311.106 28.2969 310.872 27.6146 310.497 26.5938C310.132 25.5729 309.835 24.7552 309.606 24.1406L303.997 8.90625V22.3906C303.997 23.6823 304.08 24.6667 304.247 25.3438C304.424 26.0104 304.705 26.5 305.091 26.8125C305.351 27.0312 305.815 27.2396 306.481 27.4375C307.158 27.6354 307.632 27.75 307.903 27.7812V29H298.372V27.7812C298.632 27.75 299.054 27.6823 299.637 27.5781C300.231 27.4635 300.716 27.2708 301.091 27C301.507 26.7083 301.788 26.2188 301.934 25.5312C302.08 24.8333 302.153 23.8438 302.153 22.5625V11.5781C302.153 10.9115 302.07 10.3594 301.903 9.92188C301.736 9.47396 301.486 9.11979 301.153 8.85938C300.736 8.53646 300.309 8.32812 299.872 8.23438C299.434 8.14062 298.992 8.07812 298.544 8.04688V6.82812H308.747L314.216 21.4688L318.825 9.57812C318.981 9.14062 319.132 8.61979 319.278 8.01562C319.424 7.41146 319.502 7.01562 319.512 6.82812H329.341V8.04688C329.007 8.06771 328.658 8.10938 328.294 8.17188C327.929 8.23438 327.58 8.31771 327.247 8.42188C326.841 8.55729 326.57 8.77083 326.434 9.0625C326.309 9.35417 326.247 9.67708 326.247 10.0312V25.7344C326.247 26.1094 326.309 26.4271 326.434 26.6875C326.57 26.9375 326.841 27.1562 327.247 27.3438C327.455 27.4375 327.794 27.526 328.262 27.6094C328.742 27.6927 329.111 27.75 329.372 27.7812V29Z" fill="white"/>
<path d="M370.816 29H358.738V27.7812C359.3 27.7396 359.962 27.6406 360.722 27.4844C361.482 27.3177 361.863 27.1146 361.863 26.875C361.863 26.7917 361.852 26.6979 361.831 26.5938C361.821 26.4896 361.779 26.349 361.706 26.1719L359.816 21.5781H352.159C351.982 22.0052 351.784 22.5052 351.566 23.0781C351.357 23.651 351.175 24.1615 351.019 24.6094C350.821 25.1927 350.701 25.6146 350.659 25.875C350.628 26.1354 350.613 26.3177 350.613 26.4219C350.613 26.7552 350.863 27.0417 351.363 27.2812C351.873 27.5104 352.717 27.6771 353.894 27.7812V29H344.8V27.7812C345.144 27.7604 345.529 27.7083 345.956 27.625C346.394 27.5312 346.738 27.4062 346.988 27.25C347.415 27 347.774 26.6927 348.066 26.3281C348.368 25.9635 348.618 25.5312 348.816 25.0312C350.024 22.1042 351.232 19.1719 352.441 16.2344C353.659 13.2969 355.003 10.0573 356.472 6.51562H359.597C361.639 11.5365 363.238 15.5052 364.394 18.4219C365.55 21.3385 366.534 23.7552 367.347 25.6719C367.482 25.9844 367.654 26.2708 367.863 26.5312C368.071 26.7812 368.368 27.0208 368.753 27.25C369.045 27.4167 369.383 27.5417 369.769 27.625C370.154 27.7083 370.503 27.7604 370.816 27.7812V29ZM359.175 20.0312L355.956 12L352.784 20.0312H359.175Z" fill="white"/>
<path d="M408.472 8.04688C408.18 8.07812 407.764 8.13542 407.222 8.21875C406.68 8.30208 406.191 8.50521 405.753 8.82812C405.368 9.10938 405.092 9.59375 404.925 10.2812C404.769 10.9583 404.691 11.9583 404.691 13.2812V29.125H401.909L388.097 11.9844V22.3906C388.097 23.6823 388.18 24.6667 388.347 25.3438C388.524 26.0104 388.805 26.5 389.191 26.8125C389.472 27.0417 389.92 27.2448 390.534 27.4219C391.149 27.599 391.639 27.7188 392.003 27.7812V29H382.472V27.7812C382.878 27.75 383.342 27.6771 383.863 27.5625C384.394 27.4375 384.837 27.25 385.191 27C385.597 26.6979 385.873 26.2448 386.019 25.6406C386.175 25.026 386.253 24 386.253 22.5625V12.0625C386.253 11.5417 386.17 11.0521 386.003 10.5938C385.847 10.125 385.597 9.72396 385.253 9.39062C384.889 9.03646 384.467 8.76042 383.988 8.5625C383.519 8.35417 382.982 8.19271 382.378 8.07812V6.82812H390.722L402.847 21.8281V13.4375C402.847 12.1042 402.758 11.1146 402.581 10.4688C402.404 9.8125 402.123 9.32812 401.738 9.01562C401.435 8.77604 400.988 8.57292 400.394 8.40625C399.8 8.22917 399.321 8.10938 398.956 8.04688V6.82812H408.472V8.04688Z" fill="white"/>
</svg>
